<?xml version="1.0" standalone="no"?>
<!DOCTYPE svg PUBLIC "-//W3C//DTD SVG 20010904//EN"
 "http://www.w3.org/TR/2001/REC-SVG-20010904/DTD/svg10.dtd">
<svg version="1.0" xmlns="http://www.w3.org/2000/svg"
 width="1024.000000pt" height="1024.000000pt" viewBox="0 0 1024.000000 1024.000000"
 preserveAspectRatio="xMidYMid meet">
<metadata>
Created by potrace 1.16, written by Peter Selinger 2001-2019
</metadata>
<g transform="translate(0.000000,1024.000000) scale(0.100000,-0.100000)"
fill="#000000" stroke="none">
<path d="M4995 9343 c-133 -30 -280 -137 -344 -250 -8 -15 -12 -14 -40 9 -52
44 -143 95 -211 119 -84 28 -227 31 -315 5 -160 -47 -291 -156 -360 -301 -26
-54 -40 -73 -48 -67 -27 21 -159 61 -223 67 -268 26 -534 -176 -590 -449 -9
-39 -17 -72 -19 -74 -2 -2 -31 2 -65 9 -119 23 -263 -4 -376 -72 -161 -97
-271 -307 -262 -499 l3 -78 -65 -5 c-223 -20 -418 -188 -475 -412 -19 -76 -19
-195 0 -270 9 -32 13 -65 10 -72 -2 -8 0 -11 5 -8 6 3 10 2 10 -3 0 -4 -24
-16 -54 -25 -114 -36 -264 -166 -312 -272 -85 -185 -68 -417 41 -559 l26 -34
-58 -40 c-293 -199 -341 -592 -102 -832 l55 -56 -49 -55 c-149 -166 -181 -433
-74 -633 42 -78 128 -170 194 -208 29 -16 53 -32 53 -35 0 -3 -9 -18 -21 -34
-29 -41 -57 -126 -70 -211 -27 -181 50 -380 191 -496 63 -51 154 -97 211 -107
21 -4 39 -10 39 -13 0 -4 -7 -32 -15 -62 -22 -82 -19 -234 5 -313 63 -203 261
-357 483 -374 l77 -6 0 -81 c0 -157 48 -275 155 -382 80 -80 159 -123 271
-150 65 -15 107 -15 263 -1 22 2 26 -4 42 -67 57 -222 228 -385 439 -417 124
-19 280 6 357 56 22 15 23 14 57 -58 64 -133 182 -234 329 -279 55 -16 87 -19
165 -16 111 5 180 28 288 98 l65 43 49 -55 c104 -117 237 -178 388 -180 159
-1 285 53 394 171 l64 69 44 -34 c264 -204 628 -125 790 171 23 41 44 75 47
75 4 0 29 -11 58 -24 108 -52 275 -58 389 -16 78 30 194 108 244 166 52 59
106 168 123 247 12 56 14 58 38 52 114 -27 267 -13 367 34 207 97 324 277 324
498 l0 83 48 0 c120 0 279 69 369 159 32 32 73 83 90 112 60 101 89 277 63
384 -24 94 -23 103 13 110 77 17 217 103 276 170 82 94 120 195 128 340 5 101
3 116 -22 190 -14 44 -36 95 -47 113 -11 18 -19 34 -17 36 2 1 28 17 56 35 60
37 141 122 178 185 66 113 92 284 61 406 -23 91 -68 176 -129 244 l-52 59 55
56 c121 124 173 302 140 482 -5 30 -28 91 -51 136 -33 66 -58 98 -125 163 -47
44 -89 80 -94 80 -14 0 -14 1 29 82 51 93 71 171 71 275 0 230 -145 435 -362
515 -32 11 -58 22 -58 23 0 1 7 22 16 46 8 24 18 87 21 139 10 176 -39 302
-164 428 -101 102 -234 162 -357 162 l-31 0 0 108 c0 132 -19 196 -88 299
-110 165 -315 268 -496 249 -126 -14 -113 -19 -128 54 -34 170 -147 316 -304
392 -99 48 -166 61 -280 56 -89 -4 -120 -13 -235 -64 -6 -3 -19 17 -29 43
-130 347 -607 460 -889 212 l-36 -31 -9 24 c-5 12 -10 21 -10 18 -1 -3 -31 24
-68 60 -78 76 -171 132 -259 154 -58 15 -229 20 -279 9z m292 -84 c118 -45
217 -122 277 -218 14 -22 35 -45 47 -52 13 -6 19 -7 15 -1 -10 17 93 100 169
137 85 41 140 54 225 55 217 0 423 -148 478 -344 9 -32 22 -61 30 -64 8 -2 44
9 80 26 100 47 139 56 232 56 97 1 166 -17 249 -65 41 -24 51 -33 40 -41 -10
-7 -9 -8 7 -4 14 4 29 -3 51 -26 95 -101 136 -186 152 -313 5 -42 11 -79 14
-81 2 -2 35 3 73 12 197 46 393 -19 514 -172 91 -113 123 -231 103 -371 -6
-43 -9 -81 -5 -85 4 -3 41 -9 82 -13 41 -3 93 -11 115 -17 70 -17 158 -71 220
-133 138 -139 178 -332 109 -529 -13 -39 -21 -73 -17 -77 5 -3 40 -16 79 -28
254 -77 403 -335 338 -584 -19 -75 -57 -150 -100 -201 -32 -37 -33 -41 -17
-58 9 -10 12 -18 7 -18 -5 -1 1 -9 13 -19 12 -10 19 -22 15 -26 -4 -5 -1 -5 7
0 11 6 9 12 -10 26 -34 26 -4 24 34 -3 52 -35 87 -70 80 -81 -3 -6 -1 -7 5 -3
33 20 136 -157 154 -267 29 -176 -49 -363 -192 -462 -22 -15 -40 -31 -40 -35
0 -3 34 -42 76 -85 90 -92 131 -171 147 -281 30 -204 -79 -408 -271 -508 -46
-24 -70 -42 -66 -49 4 -7 18 -27 31 -45 62 -84 98 -209 91 -320 -13 -215 -179
-401 -397 -445 -36 -8 -66 -18 -69 -25 -2 -6 4 -24 12 -41 20 -38 46 -159 46
-215 0 -59 -32 -176 -64 -230 -35 -61 -110 -136 -170 -171 -86 -50 -151 -68
-261 -69 l-100 -1 2 -25 c1 -14 5 -52 9 -86 30 -277 -195 -515 -491 -517 -48
0 -103 6 -139 17 -71 21 -86 17 -86 -26 -2 -148 -92 -306 -221 -388 -104 -68
-206 -92 -331 -79 -64 6 -97 16 -165 50 -82 41 -86 42 -99 24 -8 -10 -14 -26
-14 -34 0 -28 -49 -123 -60 -116 -5 3 -7 0 -5 -8 9 -22 -116 -134 -187 -167
-124 -58 -270 -57 -392 3 -80 40 -159 103 -150 119 4 6 2 8 -4 4 -6 -3 -14 -1
-17 4 -4 7 -25 -14 -50 -47 -135 -187 -333 -263 -526 -203 -112 34 -193 95
-260 193 -22 31 -45 57 -50 57 -6 0 -36 -22 -66 -50 -193 -176 -477 -166 -655
23 -38 41 -108 169 -108 199 0 8 -6 23 -14 33 -13 18 -15 17 -65 -13 -28 -18
-77 -40 -108 -51 -59 -19 -156 -34 -149 -22 2 3 -19 5 -48 3 -141 -9 -317 103
-391 248 -30 58 -53 141 -58 204 -2 28 -8 51 -14 53 -6 2 -40 -3 -74 -12 -234
-61 -477 42 -579 245 -40 81 -53 147 -49 263 l4 102 -67 -3 c-225 -9 -427 128
-497 336 -24 69 -28 200 -10 267 19 71 51 135 63 128 6 -3 7 -2 3 3 -5 5 -12
9 -15 9 -4 1 -38 7 -77 14 -179 34 -307 140 -373 311 -21 54 -25 81 -25 160 1
124 33 219 109 327 15 21 14 23 -47 54 -71 36 -170 124 -205 185 -60 103 -85
241 -65 360 18 100 64 186 143 266 38 38 68 73 68 77 0 5 -22 23 -50 41 -127
82 -199 237 -187 405 13 182 105 316 279 406 32 16 58 34 58 40 0 7 -16 29
-35 50 -121 134 -150 372 -66 537 65 127 209 233 349 257 23 4 42 11 42 17 0
6 -12 43 -27 82 -22 60 -26 87 -26 181 -1 130 14 183 77 277 51 77 154 156
241 187 34 12 99 25 146 28 46 3 88 9 93 13 5 5 4 34 -1 67 -12 67 -2 188 20
249 57 157 168 261 326 308 70 20 197 21 267 0 66 -19 84 -14 84 23 1 53 30
166 59 227 74 157 236 262 422 274 89 5 159 -12 263 -64 38 -20 72 -32 76 -27
4 4 15 33 24 63 44 156 189 290 363 335 159 42 342 -8 464 -127 27 -26 57 -48
67 -48 10 0 29 21 46 52 16 28 44 68 63 89 47 52 126 101 149 93 14 -4 15 -3
5 4 -10 7 -2 14 32 27 79 30 109 34 199 30 54 -3 108 -13 145 -26z"/>
<path d="M5345 8724 c-5 -1 -129 -5 -275 -7 -262 -5 -423 -21 -634 -62 -328
-64 -683 -188 -981 -344 -140 -73 -361 -213 -462 -292 -63 -49 -80 -59 -67
-37 4 7 3 8 -5 4 -6 -4 -9 -11 -6 -15 2 -5 -33 -40 -78 -79 -102 -87 -303
-290 -394 -397 -134 -158 -144 -170 -139 -152 4 11 2 16 -5 12 -6 -4 -8 -14
-5 -22 3 -8 -12 -38 -33 -67 -251 -339 -477 -833 -554 -1206 -73 -360 -84
-459 -86 -790 -3 -401 36 -679 144 -1051 19 -64 39 -128 45 -143 5 -15 7 -33
3 -39 -3 -7 -2 -9 2 -4 5 4 30 -46 55 -110 59 -151 173 -373 261 -508 38 -59
69 -109 69 -112 0 -3 -7 -2 -16 1 -9 3 -12 2 -9 -5 4 -6 13 -8 20 -6 7 3 31
-21 55 -56 174 -248 426 -514 680 -717 58 -46 104 -88 102 -94 -2 -6 -1 -8 3
-4 4 4 60 -28 124 -71 506 -338 1055 -533 1666 -592 146 -14 407 -13 570 1
469 40 888 156 1285 355 85 42 185 95 222 116 41 24 73 37 85 33 13 -4 14 -3
5 3 -9 7 7 23 60 58 95 62 369 268 392 294 10 11 23 18 28 15 4 -3 7 -2 6 3
-1 4 65 76 148 158 616 618 969 1439 1000 2328 15 422 -48 868 -175 1237 -113
330 -234 571 -432 865 -217 320 -431 544 -755 791 -278 212 -690 424 -1041
535 -40 12 -69 27 -66 32 3 6 1 7 -6 3 -6 -4 -55 4 -109 18 -204 54 -514 106
-628 106 -29 0 -54 4 -56 9 -1 4 -7 7 -13 5z m236 -103 c242 -33 418 -73 661
-151 107 -34 126 -43 122 -58 -5 -14 -4 -14 4 -2 9 12 25 8 109 -25 231 -92
654 -330 636 -358 -3 -6 -1 -7 5 -3 12 7 150 -90 269 -190 101 -85 317 -305
414 -424 212 -258 421 -626 562 -990 71 -184 151 -521 179 -757 17 -148 17
-689 0 -808 -43 -289 -64 -393 -128 -611 -39 -134 -55 -182 -83 -249 -5 -11
-15 -36 -22 -55 -26 -73 -170 -359 -231 -460 -81 -134 -216 -325 -292 -415
-87 -103 -180 -200 -188 -197 -5 1 -7 -2 -5 -7 2 -9 -153 -158 -258 -247 -180
-153 -467 -338 -694 -447 -110 -53 -127 -58 -145 -47 -19 12 -20 11 -8 -2 11
-14 -1 -21 -90 -56 -417 -163 -838 -242 -1297 -242 -275 0 -509 28 -783 94
-135 33 -386 111 -451 141 -29 13 -115 52 -192 86 -681 305 -1281 880 -1625
1554 -336 658 -441 1361 -319 2135 90 567 341 1116 717 1570 107 129 426 450
446 450 8 0 16 6 19 14 13 33 352 270 371 259 6 -3 8 -3 4 2 -10 11 9 24 159
104 195 103 252 128 265 110 8 -11 9 -11 5 3 -4 12 7 21 42 37 269 115 662
214 1013 254 177 21 615 14 809 -12z"/>
<path d="M4930 8454 c-309 -27 -508 -65 -808 -155 -489 -146 -1012 -467 -1345
-827 -30 -32 -43 -40 -49 -30 -7 10 -8 9 -6 -3 2 -9 -38 -65 -87 -125 -50 -60
-104 -127 -120 -149 -17 -22 -35 -46 -42 -52 -6 -7 -21 -28 -33 -47 -14 -24
-26 -33 -38 -30 -13 5 -14 4 -3 -4 11 -8 10 -14 -4 -36 -9 -14 -22 -23 -28
-19 -6 3 -7 1 -3 -5 4 -7 -13 -45 -38 -85 -58 -96 -178 -336 -217 -435 -87
-219 -176 -545 -194 -717 -2 -22 -10 -89 -17 -150 -16 -138 -15 -548 1 -680
46 -379 128 -696 257 -979 29 -65 51 -124 47 -130 -3 -6 -3 -8 2 -4 4 4 35
-41 67 -100 133 -237 292 -454 473 -641 69 -70 121 -131 117 -135 -4 -4 -2 -6
4 -4 7 2 31 -15 55 -38 24 -22 91 -80 149 -128 58 -49 104 -93 102 -98 -1 -5
2 -6 8 -3 7 4 38 -14 71 -39 32 -25 61 -46 64 -46 6 0 118 -71 125 -79 20 -23
406 -213 522 -256 51 -19 73 -32 65 -38 -7 -5 -4 -6 9 -3 11 4 54 -5 95 -18
303 -98 656 -156 954 -157 195 0 413 15 533 37 46 9 90 13 98 10 9 -3 12 -1 9
4 -6 9 5 11 63 14 9 1 19 3 22 6 3 3 50 16 104 29 105 25 267 75 351 109 28
11 53 20 57 21 4 1 24 9 43 17 20 8 41 12 48 8 7 -4 9 -3 4 1 -4 5 50 36 120
70 205 99 451 251 610 377 46 37 73 53 76 45 4 -9 6 -9 6 0 1 15 393 408 404
405 5 -1 6 2 3 7 -4 5 36 65 87 134 122 162 209 302 295 473 76 151 170 382
198 482 9 34 21 62 26 62 5 0 7 4 4 9 -7 11 55 265 66 269 4 2 6 7 3 12 -3 5
4 64 14 132 143 889 -105 1815 -679 2533 -98 123 -292 320 -417 424 -29 24
-50 48 -46 54 3 6 1 7 -5 3 -6 -4 -37 13 -69 37 -551 414 -1237 650 -1923 661
-118 2 -235 2 -260 0z m392 -75 c175 -12 224 -21 220 -38 -1 -7 2 -10 8 -6 6
3 7 11 4 17 -4 6 1 8 12 5 11 -3 64 -13 119 -22 125 -20 369 -83 500 -128 199
-69 327 -125 318 -140 -3 -6 -1 -7 6 -3 23 14 332 -159 504 -282 41 -30 46
-36 35 -51 -12 -14 -11 -14 4 -3 15 12 29 4 115 -67 103 -84 128 -109 128
-126 1 -5 7 -9 14 -7 18 4 72 -48 64 -61 -3 -6 -1 -7 4 -4 15 9 196 -190 187
-204 -4 -7 -3 -9 3 -6 14 9 76 -70 67 -85 -4 -7 -3 -8 4 -4 13 7 61 -55 159
-206 178 -275 318 -597 407 -938 20 -74 38 -155 41 -180 3 -25 9 -65 15 -90
35 -163 50 -560 29 -795 -45 -510 -236 -1051 -517 -1468 -127 -190 -294 -393
-313 -381 -5 3 -6 -1 -4 -8 7 -17 -121 -143 -275 -272 -212 -179 -517 -364
-793 -483 -733 -315 -1530 -348 -2277 -95 -192 65 -231 82 -223 95 3 6 1 7 -6
3 -15 -10 -122 34 -114 47 3 6 1 7 -5 3 -17 -10 -191 82 -362 193 -110 71
-270 191 -270 202 0 5 -4 8 -8 6 -14 -4 -122 95 -115 106 3 6 1 7 -6 3 -16
-10 -259 236 -366 369 -159 197 -345 491 -329 517 4 6 3 8 -3 5 -11 -7 -95
164 -149 304 -51 131 -120 382 -148 533 -45 245 -59 424 -52 681 12 458 92
833 261 1217 75 172 239 453 258 441 6 -3 7 -1 3 6 -9 14 158 239 276 371 89
100 183 191 283 275 33 28 71 60 84 72 13 11 35 27 50 35 14 7 31 18 36 25 18
21 183 131 277 185 210 121 484 245 515 233 8 -2 12 -1 8 4 -6 11 102 47 265
90 288 76 539 112 837 119 34 1 130 -3 215 -9z"/>
<path d="M5050 8128 c-224 -22 -450 -155 -577 -340 -46 -67 -113 -196 -113
-219 0 -13 -31 -17 -145 -22 -86 -4 -110 -9 -169 -36 -38 -17 -94 -50 -125
-74 -30 -23 -58 -42 -62 -42 -4 0 -11 -4 -16 -9 -5 -5 -3 -6 5 -2 19 11 14 -1
-17 -44 -58 -80 -84 -164 -89 -285 -3 -94 -1 -120 18 -174 12 -35 34 -83 49
-105 32 -46 125 -137 159 -155 12 -7 20 -17 16 -23 -4 -6 -3 -8 3 -5 6 4 35
-4 66 -17 30 -14 93 -36 140 -51 98 -30 87 -13 132 -200 15 -60 32 -133 40
-162 12 -46 12 -51 -3 -46 -12 5 -14 2 -9 -11 4 -10 7 -21 7 -24 0 -4 5 0 10
8 8 13 10 12 10 -3 0 -22 39 -38 62 -26 9 5 38 11 64 14 26 4 51 8 55 11 4 2
83 13 177 24 165 19 533 29 627 16 22 -2 56 -6 75 -7 19 -1 27 -3 17 -6 -29
-7 -14 -26 21 -27 29 -1 30 0 15 12 -15 11 -7 12 55 8 40 -3 81 -10 91 -15 10
-6 20 -8 23 -6 2 2 26 -2 53 -10 26 -8 51 -13 53 -10 3 3 11 0 18 -6 20 -16
51 -2 62 29 6 15 22 80 37 144 14 64 37 152 50 195 l24 78 63 24 c282 109 416
328 363 592 -41 206 -219 479 -429 659 -299 257 -611 376 -906 348z m295 -128
c218 -56 449 -200 640 -402 148 -155 244 -312 286 -465 67 -242 -57 -435 -338
-527 -28 -9 -56 -22 -61 -29 -12 -15 -53 -163 -83 -295 -13 -56 -27 -102 -31
-102 -5 0 -73 11 -152 25 -308 53 -609 54 -938 4 -73 -11 -149 -23 -168 -26
l-36 -5 -43 183 c-23 101 -48 195 -54 208 -10 19 -30 28 -102 46 -169 43 -263
91 -337 174 -89 100 -118 231 -80 358 54 178 199 289 391 301 l84 5 -7 -29
c-3 -16 -9 -63 -12 -104 -7 -86 7 -114 54 -108 25 3 27 8 39 83 31 200 111
387 217 502 116 126 248 194 446 227 48 8 213 -6 285 -24z"/>
<path d="M5490 7125 c-97 -22 -194 -76 -361 -202 -178 -134 -275 -184 -494
-257 -103 -34 -161 -58 -163 -68 -2 -8 6 -25 16 -38 l19 -24 84 19 c46 10 163
44 260 77 l177 58 127 0 c70 0 175 -7 234 -16 97 -14 152 -26 311 -69 47 -13
56 -13 68 -1 18 18 9 32 -37 55 -96 49 -321 96 -530 109 l-103 7 128 96 c229
172 322 200 535 163 26 -4 39 -1 49 11 51 61 -165 115 -320 80z"/>
<path d="M3250 7391 c-8 -4 -37 -19 -63 -32 -62 -31 -171 -144 -199 -206 -15
-35 -22 -71 -23 -131 -1 -46 1 -78 5 -72 5 7 9 3 13 -11 4 -14 0 -30 -9 -41
-15 -15 -14 -17 4 -15 11 0 18 5 16 9 -3 4 0 8 5 8 6 0 11 -5 11 -10 0 -6 13
-24 29 -39 16 -16 27 -32 23 -36 -4 -4 -2 -5 3 -4 6 2 30 -8 55 -21 25 -13 49
-23 54 -22 5 2 6 -4 3 -12 -4 -9 -1 -13 7 -10 13 5 86 -58 86 -75 0 -5 -5 -13
-10 -16 -8 -5 -8 -11 0 -20 11 -13 8 -53 -6 -77 -4 -7 -28 -44 -53 -83 -71
-108 -91 -157 -81 -199 4 -19 5 -37 2 -40 -3 -4 -1 -6 5 -6 6 0 14 -7 17 -16
4 -11 2 -15 -7 -11 -8 3 -14 -1 -14 -8 0 -8 9 -16 19 -18 10 -3 15 -1 12 4 -3
6 5 7 19 4 36 -9 51 20 29 57 -21 36 -5 89 45 144 159 171 187 244 138 360 -8
21 -31 53 -50 71 -20 19 -33 39 -29 44 3 5 2 8 -3 7 -16 -5 -84 29 -159 79 -6
5 -23 26 -38 47 -30 45 -35 106 -11 162 8 19 14 37 14 39 1 11 85 95 96 95 6
0 21 14 34 30 12 17 26 28 32 25 5 -4 9 1 9 10 0 10 -5 13 -12 9 -8 -5 -9 0
-6 14 4 12 5 22 5 21 -1 0 -9 -4 -17 -8z"/>
<path d="M6986 7362 c2 -46 4 -52 17 -52 18 0 117 -89 117 -106 0 -8 4 -14 9
-14 14 0 41 -77 41 -118 0 -41 -27 -91 -68 -127 -41 -36 -120 -75 -140 -69
-13 5 -14 4 -4 -4 11 -7 5 -16 -27 -38 -50 -36 -91 -114 -92 -175 -1 -42 23
-127 39 -139 20 -14 137 -162 137 -173 0 -7 -8 -11 -19 -10 -13 1 -15 -2 -7
-10 7 -7 14 -7 25 2 10 8 16 9 21 1 3 -5 3 -10 -1 -10 -3 0 -1 -7 6 -15 7 -9
10 -30 6 -58 -8 -58 14 -70 52 -30 34 36 38 102 10 149 -11 18 -17 38 -13 44
3 5 0 10 -7 10 -7 0 -24 20 -38 45 -14 25 -28 45 -31 45 -4 0 -14 18 -23 40
-17 43 -22 125 -7 116 5 -4 7 2 4 13 -5 22 41 63 114 101 26 14 54 33 61 43 7
9 17 17 23 17 16 0 45 35 69 86 35 71 33 162 -3 235 -26 53 -67 104 -99 124
-8 6 -36 25 -62 43 -25 18 -61 39 -79 47 -32 13 -33 13 -31 -13z"/>
<path d="M2311 5822 c-14 -10 -21 -25 -21 -46 0 -18 -6 -38 -12 -45 -10 -11
-10 -13 0 -7 9 6 12 -19 12 -109 0 -75 -4 -114 -10 -110 -5 3 -10 1 -10 -4 0
-6 4 -11 9 -11 5 0 10 -37 11 -82 1 -46 3 -100 4 -120 1 -20 0 -35 -4 -33 -4
2 -7 -2 -7 -9 0 -15 14 -15 35 -2 7 4 36 6 65 4 l52 -3 3 78 c2 59 6 77 17 77
8 0 15 -4 15 -10 0 -5 5 -10 11 -10 5 0 8 4 4 9 -3 5 5 12 17 14 13 2 3 5 -21
6 -64 2 -47 9 36 15 43 3 87 13 111 25 22 11 42 17 45 13 2 -4 2 -2 1 5 -2 7
1 15 7 18 24 15 49 87 49 140 0 117 -72 190 -194 197 -25 2 -46 7 -46 12 0 5
-8 2 -17 -5 -15 -12 -16 -12 -8 1 7 12 6 13 -6 4 -9 -7 -34 -9 -70 -5 -41 5
-62 3 -78 -7z m250 -148 c12 -10 18 -29 18 -48 l-2 -31 -7 35 c-7 33 -8 32 -7
-13 1 -32 -4 -52 -14 -58 -18 -11 -79 -12 -79 0 0 5 10 7 23 5 20 -4 21 -4 2
5 -11 5 -15 10 -10 10 6 1 3 5 -5 10 -19 13 -30 5 -25 -19 2 -11 0 -20 -6 -20
-5 0 -9 31 -9 68 l0 68 51 3 c37 1 57 -3 70 -15z"/>
<path d="M2838 5828 l-37 -10 0 -276 c-1 -153 2 -282 7 -289 4 -6 28 -10 55
-10 26 1 47 -1 47 -5 0 -5 -4 -8 -10 -8 -5 0 -10 -7 -10 -16 0 -14 2 -15 17
-3 11 10 14 10 9 2 -4 -7 -3 -13 2 -13 6 0 12 7 16 15 3 8 1 15 -5 15 -6 0 -7
5 -4 10 4 6 10 8 15 5 16 -10 31 148 17 172 -5 8 4 11 25 10 25 -2 33 -6 32
-19 -1 -10 2 -16 6 -13 10 6 44 -72 43 -96 -1 -11 5 -19 14 -19 9 0 13 -6 9
-15 -3 -8 -2 -14 2 -14 4 1 9 1 12 0 3 -1 38 -3 78 -5 62 -4 73 -2 82 14 5 10
6 20 2 22 -15 6 -92 160 -86 170 4 7 2 8 -4 4 -24 -15 -11 15 18 41 16 14 35
41 42 59 6 18 14 31 17 29 3 -2 4 20 2 47 -2 33 0 48 7 44 6 -3 13 -2 17 4 3
5 -2 10 -12 10 -11 0 -25 15 -35 38 -10 20 -33 47 -52 60 -40 27 -144 46 -227
40 -32 -2 -55 0 -53 4 6 10 -10 9 -58 -4z m243 -160 c14 -22 10 -70 -8 -90
-11 -13 -30 -18 -63 -18 -45 0 -48 1 -54 32 -3 17 -4 45 0 62 5 31 6 31 61 29
34 -1 59 -7 64 -15z"/>
<path d="M3362 5830 c1 -3 -2 -12 -6 -22 -4 -9 -6 -140 -4 -292 2 -219 6 -278
17 -288 10 -10 12 -10 7 0 -11 19 21 26 71 15 41 -10 46 -9 50 8 3 10 8 19 12
19 8 0 5 432 -4 498 -4 28 -11 52 -17 52 -5 0 -7 3 -5 8 3 4 -23 7 -58 7 -35
0 -63 -2 -63 -5z"/>
<path d="M3745 5831 c-39 -10 -85 -34 -111 -60 -12 -11 -23 -18 -25 -16 -10 9
-17 -135 -9 -170 3 -11 12 -26 20 -33 13 -12 13 -13 -1 -9 -9 3 -16 -1 -16 -8
0 -7 8 -10 17 -8 18 5 103 -40 94 -50 -3 -3 4 -3 17 0 19 5 21 3 16 -18 -6
-22 -5 -23 8 -6 15 21 47 16 78 -11 23 -20 22 -38 -5 -56 -32 -23 -75 -20
-138 10 l-55 25 -27 -30 c-36 -41 -36 -73 1 -104 17 -14 28 -27 25 -30 -3 -3
1 -4 8 -4 32 4 148 -26 148 -38 0 -7 11 -12 25 -11 14 0 25 7 25 14 0 10 -5
10 -20 2 -13 -7 -20 -7 -20 -1 0 6 12 13 28 16 118 25 177 86 176 183 0 31 -6
68 -14 82 -8 14 -14 30 -15 35 0 6 -4 10 -10 10 -5 0 -26 10 -45 22 -19 12
-60 28 -91 37 -75 22 -98 39 -83 63 6 10 24 20 40 24 31 5 117 -18 109 -30 -2
-4 6 -6 18 -5 12 1 25 3 29 3 10 1 48 76 48 95 0 20 -114 73 -170 79 -25 3
-58 2 -75 -2z"/>
<path d="M4051 5823 c-6 -7 -11 -31 -11 -54 0 -39 -1 -41 -14 -23 -8 10 -18
15 -22 11 -5 -4 -2 -12 6 -17 13 -9 13 -10 0 -10 -10 0 -6 -8 12 -25 23 -21
37 -25 97 -26 l71 -2 0 -94 c0 -57 -4 -92 -10 -88 -5 3 -6 13 -3 23 3 9 3 14
-2 10 -9 -8 -13 -108 -5 -113 3 -2 7 10 8 28 2 17 5 33 8 36 3 3 4 -54 2 -127
-2 -90 0 -128 7 -119 6 8 34 14 70 16 33 1 63 5 67 7 5 3 8 99 8 214 l0 210
75 -2 c41 -1 77 1 80 4 10 10 7 130 -3 140 -16 16 -426 16 -441 1z"/>
<path d="M4570 5837 c-2 -11 -2 -516 0 -559 2 -45 6 -54 14 -43 9 12 26 15 74
11 l62 -4 0 283 c0 238 -2 284 -15 295 -12 10 -134 25 -135 17z"/>
<path d="M4838 5823 c-5 -7 -10 -29 -10 -50 0 -28 -2 -33 -8 -18 -4 13 -7 0
-7 -35 0 -48 1 -51 7 -20 l7 35 2 -42 c1 -30 -3 -42 -11 -40 -15 2 -12 -36 3
-41 5 -2 8 -16 8 -30 -2 -24 -2 -24 -6 -4 -8 39 -20 24 -19 -23 1 -48 12 -60
19 -22 4 20 4 19 6 -4 0 -15 -5 -29 -13 -32 -10 -4 -13 -16 -11 -34 2 -15 4
-59 5 -98 1 -46 4 -63 9 -50 7 16 9 12 9 -17 0 -20 7 -46 15 -58 13 -18 16
-19 27 -5 10 13 37 15 139 15 164 -2 187 8 259 105 8 12 8 56 -2 107 -4 25 -3
37 6 40 9 3 9 6 0 12 -7 4 -12 2 -12 -4 0 -7 -13 1 -29 16 l-30 28 24 28 c43
51 44 131 3 183 -40 51 -96 65 -274 68 -74 2 -108 -1 -116 -10z"/>
<path d="M5375 5824 c-18 -13 -20 -28 -21 -172 -2 -163 6 -259 26 -302 20 -46
37 -71 45 -68 4 2 13 -6 19 -17 17 -29 33 -45 40 -38 3 3 -2 12 -12 19 -14 10
-9 10 25 1 29 -7 39 -14 30 -20 -7 -5 4 -6 28 -3 22 3 63 8 90 12 77 9 135 48
167 114 27 55 27 56 28 273 0 146 -3 217 -11 217 -5 0 -7 -5 -3 -12 5 -7 3 -8
-7 -3 -27 17 -89 17 -106 -1 -15 -15 -17 -15 -22 -1 -3 9 -6 -78 -6 -193 0
-196 -1 -211 -20 -229 -11 -11 -36 -23 -56 -26 -30 -5 -42 -1 -65 19 l-29 24
-2 193 c-2 151 -6 196 -17 207 -20 20 -96 24 -121 6z"/>
<path d="M5971 5821 c-19 -12 -21 -23 -21 -134 0 -106 -2 -119 -14 -102 -13
18 -14 18 -9 -8 3 -15 9 -24 14 -21 7 4 16 -273 11 -317 -1 -8 27 -5 48 4 8 4
87 8 175 9 l160 3 3 39 c7 85 6 86 -122 86 l-113 0 -1 41 c-1 22 -4 44 -6 47
-2 4 31 6 74 4 63 -3 78 -6 73 -18 -3 -8 0 -14 6 -14 6 0 11 8 11 17 0 9 3 13
7 10 3 -4 12 1 19 11 17 21 18 104 2 120 -8 8 -45 12 -100 12 l-88 0 1 48 c0
27 3 40 7 30 5 -12 11 -15 21 -9 8 5 20 7 28 4 7 -3 13 -1 13 5 0 11 25 10 36
-1 11 -11 26 -8 19 3 -7 11 8 14 19 3 11 -11 56 -11 49 0 -4 6 2 8 15 5 17 -5
23 -1 28 18 8 30 -1 93 -15 107 -16 16 -326 14 -350 -2z"/>
<path d="M6450 5823 c-19 -14 -20 -25 -20 -293 0 -269 1 -280 20 -290 11 -6
20 -18 20 -28 0 -14 2 -14 9 -3 5 8 16 11 26 8 9 -4 14 -3 10 3 -3 6 -15 10
-26 10 -11 0 -17 5 -14 10 3 6 26 10 50 10 55 0 58 9 53 149 -1 56 1 101 5
101 4 0 3 9 -3 19 -25 48 -6 40 26 -11 20 -31 34 -59 33 -62 -2 -3 6 -13 19
-21 12 -9 20 -21 17 -26 -4 -5 -1 -9 4 -9 6 0 11 -4 11 -9 0 -6 11 -22 25 -37
21 -22 23 -30 13 -48 -10 -18 -9 -19 4 -8 12 10 18 9 28 -2 6 -9 9 -20 5 -26
-4 -6 -3 -10 2 -9 4 1 13 0 18 -1 6 -1 26 -1 46 0 20 1 43 -5 51 -13 30 -30
35 12 37 293 1 151 5 278 7 282 3 4 0 8 -6 8 -6 0 -9 3 -7 8 3 4 -26 7 -63 7
-37 0 -66 -3 -64 -6 2 -4 -6 -10 -19 -14 -13 -4 -17 -8 -9 -12 6 -2 12 -12 12
-21 0 -15 -2 -15 -10 -2 -5 8 -10 10 -10 5 0 -6 4 -15 9 -20 10 -10 18 -221
10 -230 -3 -2 -11 5 -18 17 -7 11 -8 17 -2 14 5 -4 12 -2 16 4 3 5 1 10 -5 10
-6 0 -8 5 -5 10 3 6 -1 10 -10 10 -10 0 -14 -5 -9 -12 21 -37 -21 19 -86 115
-40 59 -82 112 -93 118 -31 17 -84 18 -107 2z"/>
<path d="M7234 5829 c-28 -4 -60 -11 -72 -18 -26 -14 -35 -14 -27 -1 3 6 1 10
-5 10 -6 0 -10 -6 -8 -13 4 -16 -66 -79 -77 -69 -5 4 -5 2 -2 -4 3 -6 -5 -33
-18 -60 -14 -27 -25 -61 -25 -76 0 -15 -4 -29 -10 -33 -5 -3 -7 -12 -3 -20 3
-9 1 -21 -5 -28 -7 -8 -7 -24 -1 -47 l9 -35 -5 40 c-5 46 9 29 18 -23 5 -24 3
-31 -6 -27 -6 4 -4 0 7 -9 10 -8 15 -20 10 -27 -4 -8 -3 -10 4 -5 7 4 12 3 12
-3 0 -5 -6 -12 -12 -15 -8 -3 -7 -5 3 -3 18 2 82 -67 71 -78 -4 -5 -2 -5 4 -2
10 6 68 -26 60 -34 -2 -2 5 -5 17 -5 85 -6 130 -14 145 -26 15 -12 16 -11 3 5
-12 15 -11 17 13 17 36 0 96 32 137 72 18 18 37 32 42 30 4 -1 6 2 3 7 -3 5 2
26 11 47 15 36 33 105 34 129 1 23 -11 79 -26 126 -21 62 -100 144 -156 160
-21 7 -37 15 -35 18 5 8 -45 8 -110 0z m110 -162 c17 -12 25 -24 22 -33 -3 -8
-1 -12 4 -9 15 9 24 -46 11 -68 -7 -11 -8 -16 -2 -12 15 9 14 -74 -2 -104 -20
-39 -61 -64 -106 -64 -72 0 -115 60 -114 160 1 68 25 122 65 140 34 15 90 10
122 -10z"/>
<path d="M7760 5828 c-25 -6 -60 -21 -79 -35 -41 -32 -74 -103 -69 -149 2 -19
0 -34 -4 -34 -9 0 10 -24 59 -75 18 -18 29 -35 24 -37 -5 -2 -3 -12 6 -23 15
-20 15 -20 8 3 -7 25 -4 26 42 10 18 -7 33 -19 33 -28 0 -13 -2 -13 -10 0 -5
8 -11 12 -14 10 -2 -3 2 -14 10 -24 8 -11 14 -14 14 -8 0 8 9 10 26 6 22 -6
25 -4 18 7 -6 11 -2 10 16 -2 33 -21 35 -34 11 -58 -28 -28 -76 -27 -137 4
-27 14 -54 23 -61 20 -14 -5 -53 -77 -53 -97 0 -14 61 -58 82 -59 7 0 4 -4 -7
-9 -17 -7 -17 -9 -2 -9 9 -1 17 -5 17 -11 0 -5 4 -10 10 -10 5 0 6 8 3 17 -5
13 -2 15 11 10 10 -4 29 -7 42 -7 18 0 24 -5 24 -21 0 -11 5 -17 10 -14 6 4 8
11 5 16 -4 5 2 9 13 9 41 0 124 33 157 61 42 37 67 110 56 161 -17 74 -45 99
-156 143 -86 34 -108 51 -95 75 12 23 89 25 139 4 44 -19 71 -25 70 -16 -3 20
3 25 12 12 9 -13 10 -12 5 3 -3 10 0 33 8 51 12 29 12 34 -9 58 -13 15 -25 25
-27 22 -3 -2 -21 2 -40 10 -47 20 -114 26 -168 14z"/>
<path d="M5462 5090 c-18 -11 -38 -17 -44 -14 -6 4 -8 3 -5 -3 4 -6 -2 -18
-12 -27 -15 -14 -23 -15 -43 -6 -62 29 -140 -26 -206 -145 -18 -33 -31 -50
-29 -37 3 12 1 20 -3 17 -5 -3 -11 -1 -15 5 -3 5 -23 14 -45 20 -58 16 -99 -5
-152 -77 -24 -32 -51 -77 -61 -99 -15 -33 -26 -43 -66 -57 -65 -23 -95 -48
-121 -103 -12 -24 -25 -43 -29 -41 -66 36 -101 46 -125 37 -14 -5 -26 -6 -26
-3 0 4 -17 -9 -37 -28 -21 -19 -51 -41 -66 -49 -33 -17 -67 -76 -67 -118 0
-16 7 -51 15 -77 14 -48 14 -49 -15 -82 -17 -19 -30 -40 -30 -49 0 -8 -12 -19
-27 -24 -76 -28 -103 -60 -103 -122 0 -43 20 -72 75 -103 l43 -26 -31 -56
c-18 -30 -60 -84 -94 -119 -75 -77 -92 -102 -103 -149 -7 -32 -5 -37 29 -67
20 -18 53 -42 74 -53 31 -16 46 -36 78 -100 21 -44 57 -104 79 -132 23 -31 37
-59 34 -68 -4 -8 -1 -15 6 -15 6 0 8 5 4 11 -4 7 29 -20 74 -58 91 -79 196
-135 305 -162 99 -26 277 -43 356 -36 36 3 89 8 117 11 77 7 226 50 309 88
202 93 333 222 425 417 33 72 43 83 95 116 40 25 69 53 96 95 72 113 73 229 2
324 -27 36 -110 84 -145 84 -23 0 -24 2 -18 59 3 32 10 65 16 72 6 8 16 29 23
48 18 56 0 96 -62 131 -55 32 -99 37 -144 18 -29 -12 -133 -113 -133 -129 0
-5 -5 -9 -11 -9 -5 0 -7 5 -4 10 8 12 3 13 -29 0 -17 -6 -26 -6 -26 0 0 6 6
10 14 10 8 0 28 14 45 31 17 17 31 27 31 22 2 -25 62 116 66 155 5 43 2 51
-34 94 -22 26 -42 44 -46 41 -3 -4 -6 -1 -6 5 0 15 72 75 166 136 103 69 134
105 134 157 0 32 -7 47 -35 76 -19 20 -35 32 -35 28 0 -5 -5 -4 -12 3 -8 8 -8
15 3 28 8 10 9 15 2 11 -17 -10 -28 13 -12 25 10 7 8 8 -7 3 -13 -3 -26 1 -34
10 -16 19 -86 20 -133 0 -32 -13 -36 -13 -41 2 -4 9 -1 20 6 25 10 7 9 9 -2 5
-8 -2 -31 4 -50 15 -46 24 -107 23 -148 -2z m126 -53 c6 -5 12 -24 12 -42 0
-48 -53 -113 -122 -150 -119 -64 -152 -128 -113 -222 l16 -37 64 64 c46 45 79
91 117 163 63 120 96 156 168 181 l53 19 19 -23 c27 -33 23 -46 -33 -106 -61
-64 -56 -69 13 -14 54 43 74 48 102 27 12 -9 17 -23 14 -47 -2 -29 -11 -40
-53 -67 -71 -45 -111 -75 -184 -137 -50 -41 -77 -56 -120 -66 -31 -7 -72 -21
-92 -30 -34 -18 -92 -76 -114 -114 -10 -17 -14 -17 -79 3 -37 12 -79 21 -92
21 -27 0 -27 -1 -13 60 6 25 10 93 10 152 0 104 2 110 38 185 50 103 68 118
141 119 49 1 64 6 97 32 59 46 115 57 151 29z m-527 -197 c24 -14 24 -31 -2
-64 -23 -29 -15 -35 13 -9 26 24 40 5 46 -61 7 -82 -2 -102 -51 -124 -62 -28
-124 -96 -144 -158 -15 -49 -15 -56 1 -97 16 -43 16 -47 -4 -106 -11 -33 -20
-73 -20 -88 0 -27 0 -27 -45 17 -25 24 -49 58 -54 74 -5 17 -16 56 -25 86 -9
30 -34 79 -56 107 -35 47 -38 56 -29 80 24 66 93 136 113 116 3 -4 6 -33 6
-66 0 -33 2 -58 5 -55 3 3 12 31 20 63 32 120 144 295 191 295 8 0 24 -5 35
-10z m586 -330 c85 -51 42 -166 -96 -258 -43 -29 -68 -38 -120 -43 -37 -4 -70
-3 -75 2 -15 14 -34 11 -53 -10 -10 -10 -34 -24 -54 -30 -20 -6 -62 -27 -94
-46 -32 -19 -60 -35 -62 -35 -12 0 11 99 33 145 l25 50 -26 -30 c-33 -39 -75
-123 -75 -151 0 -23 -17 -66 -39 -101 -14 -20 -15 -20 -39 30 -32 70 -33 78
-16 143 28 109 121 210 209 228 27 6 103 -12 167 -39 13 -5 21 3 36 37 21 47
60 88 107 112 43 23 132 21 172 -4z m-1066 -28 c49 -32 110 -96 132 -139 8
-15 25 -61 37 -102 21 -71 62 -130 127 -184 12 -10 38 -45 58 -77 36 -59 36
-62 31 -133 -9 -109 -9 -138 -1 -184 5 -27 4 -43 -2 -43 -6 0 -32 18 -59 39
-27 21 -77 53 -112 71 -34 17 -62 35 -62 40 0 5 -3 15 -6 24 -8 22 19 21 92
-4 46 -15 55 -16 39 -4 -30 23 -112 64 -130 64 -9 0 -25 22 -39 53 -71 160
-119 224 -233 307 -55 41 -83 87 -83 139 0 51 30 86 66 77 18 -5 22 -3 18 8
-11 30 30 73 72 75 5 1 30 -12 55 -27z m1323 -204 c25 -36 19 -58 -31 -112
-26 -28 -51 -52 -55 -54 -4 -2 -27 10 -52 27 -53 37 -52 49 8 115 36 38 49 46
79 46 26 0 40 -6 51 -22z m-1469 -118 c122 -84 168 -153 231 -346 l29 -90 57
-27 c31 -15 78 -44 105 -64 53 -40 103 -62 146 -63 34 0 63 -14 100 -48 33
-31 37 -80 7 -107 -25 -22 -109 -32 -140 -15 -15 8 -25 9 -32 2 -7 -7 0 -17
23 -32 27 -16 46 -20 87 -17 28 2 52 1 52 -3 0 -4 -13 -26 -30 -48 -53 -74
-114 -73 -211 3 -103 81 -155 92 -234 49 -41 -21 -52 -23 -76 -14 -39 16 -57
40 -67 85 l-8 38 -36 -31 c-48 -42 -109 -44 -176 -5 -78 45 -162 113 -162 132
0 9 36 57 81 107 44 49 92 108 106 132 14 23 29 42 35 42 5 0 19 -21 30 -47
20 -45 20 -48 3 -58 -66 -39 -95 -84 -95 -150 0 -43 23 -90 49 -105 28 -15
108 -12 140 4 29 16 89 86 72 86 -5 0 -16 -6 -23 -14 -26 -25 -77 -46 -114
-46 -53 0 -74 23 -74 80 0 38 5 51 28 74 38 36 95 45 124 20 23 -21 19 -10
-16 41 -11 16 -32 55 -47 86 -28 58 -63 98 -108 120 -82 41 -102 79 -64 121
21 24 78 24 92 1 8 -14 10 -7 11 30 0 54 23 107 46 107 8 0 35 -14 59 -30z
m1183 -15 c151 -36 255 -134 277 -262 4 -24 3 -43 -2 -43 -5 0 -33 21 -63 46
-108 92 -226 134 -381 134 -148 0 -261 -43 -371 -139 -25 -22 -49 -41 -52 -41
-13 0 -5 67 13 107 38 83 151 162 282 197 71 19 218 20 297 1z m401 -199 c42
-22 89 -81 97 -122 11 -62 -2 -143 -33 -193 -26 -42 -103 -111 -124 -111 -24
0 -4 43 37 82 55 50 74 90 74 152 0 77 -32 116 -94 116 -24 0 -36 21 -36 68 0
17 6 22 25 22 15 0 39 -7 54 -14z m-828 -276 c179 -83 410 -79 579 11 41 23
88 53 104 67 l28 27 -5 -105 c-3 -58 -11 -123 -18 -144 -22 -66 -109 -150
-204 -197 -147 -73 -292 -76 -436 -8 -82 39 -90 50 -71 103 10 26 13 52 8 71
-9 37 -74 100 -119 114 -29 10 -35 18 -41 49 -8 48 -8 107 0 115 4 3 29 -12
58 -33 28 -21 81 -53 117 -70z m668 -292 c-36 -69 -80 -128 -91 -122 -7 5 -8
3 -4 -5 9 -14 -24 -42 -38 -34 -5 4 -6 2 -3 -4 7 -10 -54 -72 -115 -117 -56
-40 -193 -102 -283 -127 -66 -18 -114 -23 -270 -26 -168 -4 -200 -2 -280 17
-101 23 -230 82 -289 131 -50 42 -167 179 -161 189 3 4 -2 11 -11 14 -9 4 -14
13 -10 22 3 8 2 12 -4 9 -6 -3 -10 1 -10 10 0 12 5 15 16 11 9 -3 22 -6 30 -6
9 0 13 -4 10 -9 -4 -5 2 -7 12 -4 10 2 40 -5 67 -17 28 -12 77 -31 110 -42 33
-11 74 -28 90 -36 17 -9 36 -17 43 -18 8 -1 21 -6 30 -10 9 -4 24 -8 32 -10
145 -27 200 -40 200 -47 0 -5 -6 -7 -13 -4 -8 3 -14 0 -14 -7 0 -7 12 -12 26
-13 14 -1 20 1 13 4 -6 2 -10 9 -6 14 3 6 47 7 107 3 128 -8 228 5 432 57 186
47 238 70 325 144 35 30 66 55 67 55 2 0 -2 -10 -8 -22z m-684 -94 c25 1 30
-3 29 -21 -1 -13 3 -20 7 -17 5 3 6 10 3 16 -7 11 4 8 79 -20 l47 -18 -62 -12
c-35 -7 -101 -12 -148 -11 l-85 2 45 46 c25 25 47 43 50 40 3 -3 19 -5 35 -5z"/>
<path d="M2717 4822 c-3 -4 -12 -32 -22 -62 -10 -30 -20 -59 -24 -65 -7 -11
-7 -17 -10 -100 -1 -43 -4 -56 -11 -45 -14 22 -12 6 4 -37 22 -57 28 -93 16
-93 -5 0 -10 -5 -10 -11 0 -5 4 -8 9 -4 12 7 36 -42 62 -130 30 -100 32 -115
12 -70 -10 22 -26 52 -35 68 -46 71 -52 83 -50 94 1 6 -2 14 -8 18 -6 3 -7 0
-4 -9 7 -18 -1 -21 -19 -6 -37 31 -91 70 -96 70 -4 0 -18 10 -31 23 -14 12
-26 21 -27 20 -5 -5 -38 11 -46 21 -5 6 -6 3 -3 -9 2 -11 8 -40 11 -64 13 -79
83 -216 129 -250 11 -8 27 -22 36 -30 8 -9 28 -24 43 -34 15 -10 25 -22 22
-27 -3 -6 1 -7 9 -4 9 3 31 -4 51 -16 31 -19 34 -24 24 -43 -7 -12 -8 -19 -4
-14 5 4 18 -1 29 -10 15 -14 18 -14 8 -2 -6 9 -8 20 -4 24 4 5 1 5 -7 0 -10
-6 -12 -4 -7 4 11 17 49 -17 41 -36 -2 -8 -1 -12 4 -9 5 3 14 -1 20 -8 10 -12
8 -14 -11 -10 -18 3 -16 1 7 -10 17 -9 23 -15 14 -16 -9 0 -38 12 -65 27 -94
51 -123 63 -161 68 -21 2 -55 7 -75 11 -23 3 -38 2 -38 -4 0 -6 4 -12 8 -14 4
-1 25 -34 46 -72 22 -38 51 -81 65 -95 15 -14 25 -35 24 -46 -2 -11 0 -14 3
-7 3 6 10 12 15 12 6 0 8 -4 5 -8 -3 -5 7 -15 22 -23 15 -8 29 -17 32 -20 7
-9 69 -40 73 -37 7 6 37 -24 32 -32 -3 -4 2 -11 11 -14 28 -11 38 -6 18 9 -18
13 -17 14 11 6 102 -30 129 -46 122 -73 -3 -10 -1 -16 4 -12 5 3 9 -1 9 -8 0
-9 3 -9 10 2 9 14 14 7 11 -13 -1 -5 3 -6 8 -3 5 4 20 -8 32 -25 12 -18 18
-30 13 -27 -90 43 -135 61 -164 65 -45 7 -230 12 -230 6 0 -5 7 -14 55 -67 19
-22 32 -43 29 -48 -3 -5 -2 -8 3 -7 18 5 43 -14 43 -33 0 -14 5 -18 15 -15 8
4 40 -9 71 -28 32 -19 73 -37 93 -41 20 -3 50 -9 66 -14 17 -4 56 -11 88 -14
69 -7 115 -30 177 -85 39 -35 32 -49 -8 -18 -22 17 -220 19 -281 2 -65 -17
-71 -23 -46 -41 59 -43 74 -57 72 -67 -1 -6 9 -14 23 -17 50 -13 70 -22 65
-30 -3 -4 9 -10 26 -14 21 -4 28 -10 23 -18 -6 -10 -4 -10 8 0 9 7 19 9 22 4
13 -22 194 -32 304 -17 46 7 85 -1 77 -16 -3 -5 0 -6 7 -4 8 3 23 -3 33 -13
43 -38 241 -142 274 -142 26 0 29 31 4 47 -10 7 -53 30 -96 53 -113 58 -217
128 -217 146 0 8 7 29 16 47 23 43 28 186 9 257 -8 29 -11 58 -8 63 4 6 1 7
-6 3 -8 -5 -14 0 -18 13 -3 12 -10 21 -15 21 -6 0 -5 7 2 15 11 13 10 14 -3
10 -8 -4 -18 -1 -23 6 -5 8 -3 10 7 4 8 -5 7 0 -4 12 -9 11 -15 22 -12 25 3 3
-3 8 -15 11 -11 3 -18 2 -16 -1 2 -4 -5 -20 -15 -37 -45 -73 -74 -172 -65
-219 3 -11 7 -34 11 -49 4 -21 3 -27 -7 -21 -6 4 -1 -8 12 -27 13 -19 28 -36
32 -37 5 -2 6 -8 3 -13 -8 -12 -45 12 -45 29 0 7 -4 11 -9 8 -9 -6 -92 84
-102 111 -3 10 -2 31 2 48 55 199 52 180 35 273 -9 48 -17 95 -18 104 -1 9 -6
14 -10 12 -4 -3 -9 0 -9 5 -5 39 -20 81 -28 81 -5 0 -23 -14 -40 -30 -53 -54
-97 -208 -79 -278 6 -21 5 -39 -2 -50 -9 -14 -10 -13 -4 7 4 16 3 21 -5 17 -6
-4 -11 -2 -11 4 0 6 -4 9 -9 6 -16 -10 -71 85 -71 121 0 19 17 66 40 111 59
113 72 224 38 315 -6 15 -12 38 -13 50 -1 12 -3 25 -4 30 -2 15 -58 -23 -85
-58 -55 -71 -80 -143 -81 -227 0 -43 -2 -78 -6 -78 -11 0 -49 92 -43 102 4 6
3 8 -3 5 -13 -8 -23 25 -23 76 0 21 5 37 12 37 6 0 9 3 5 6 -3 3 14 35 39 72
64 96 87 162 86 252 -1 143 1 136 -27 136 -15 0 -25 -6 -25 -14 0 -9 -6 -12
-16 -8 -8 3 -13 2 -10 -2 3 -5 -12 -26 -33 -46 -22 -21 -47 -55 -56 -77 -10
-21 -22 -36 -26 -33 -5 3 -6 -1 -4 -9 3 -7 0 -40 -8 -73 -8 -35 -10 -73 -6
-94 10 -46 4 -50 -10 -7 -6 19 -8 42 -5 52 5 13 4 16 -4 11 -8 -5 -12 0 -12
13 0 10 3 21 8 24 4 2 1 2 -5 1 -13 -3 -23 24 -24 61 -1 11 9 52 21 90 38 120
30 252 -21 348 -7 13 -6 23 3 34 11 14 10 15 -9 9 -18 -6 -23 -3 -29 18 -6 24
-29 42 -37 28z"/>
<path d="M7504 4812 c-6 -4 -19 -28 -29 -54 -10 -26 -20 -46 -24 -44 -3 2 -7
-6 -7 -17 -1 -12 -5 -33 -9 -47 -19 -66 -17 -158 6 -235 19 -64 20 -80 10 -97
-7 -11 -8 -17 -2 -13 16 9 13 -30 -8 -110 -32 -120 -36 -121 -37 -17 -1 80 -5
106 -24 147 -13 28 -24 56 -23 62 0 7 -3 11 -7 8 -5 -3 -28 17 -53 45 -25 27
-50 50 -56 50 -6 0 -11 5 -11 10 0 6 -4 10 -10 10 -5 0 -10 -9 -10 -20 0 -11
-3 -20 -7 -20 -5 0 -7 -44 -7 -99 2 -114 16 -153 89 -256 26 -36 43 -65 38
-65 -4 0 0 -5 10 -11 11 -6 17 -22 17 -45 0 -46 -16 -74 -43 -75 -17 -1 -18
-2 -4 -6 20 -5 21 -10 6 -51 -6 -18 -15 -29 -20 -26 -5 3 -6 -1 -3 -9 3 -8 1
-18 -5 -22 -12 -7 -14 17 -5 52 4 13 10 20 15 17 15 -9 10 13 -6 26 -8 7 -15
21 -15 31 0 70 -113 234 -168 244 -18 3 -21 1 -13 -8 7 -9 5 -33 -6 -81 -10
-47 -18 -64 -24 -55 -7 11 -9 10 -9 -3 0 -10 5 -18 11 -18 5 0 8 -4 5 -8 -2
-4 0 -39 5 -77 6 -39 11 -78 12 -87 1 -10 4 -18 8 -18 12 0 69 -131 69 -157 0
-28 -58 -115 -71 -107 -5 3 -7 -1 -4 -8 3 -7 -11 -33 -30 -57 -19 -24 -35 -42
-35 -40 1 23 48 139 53 128 3 -8 6 -9 6 -2 1 6 -3 15 -9 18 -5 3 -10 19 -10
34 0 16 -7 48 -15 71 -8 23 -12 47 -8 53 3 6 1 7 -5 3 -6 -4 -16 4 -23 16 -7
13 -22 35 -35 50 -12 15 -24 33 -27 40 -9 21 -24 -8 -56 -107 -35 -105 -35
-177 -2 -290 24 -79 25 -86 11 -65 -8 12 -10 12 -10 1 0 -8 8 -19 17 -26 16
-12 16 -14 -2 -41 -26 -40 -45 -53 -80 -54 -22 0 -26 -3 -16 -9 8 -5 21 -7 30
-4 14 4 14 3 1 -5 -8 -6 -18 -8 -22 -6 -4 3 -8 -2 -8 -11 0 -14 -53 -75 -65
-75 -2 0 0 10 4 23 5 12 14 21 21 19 6 -1 9 2 5 7 -3 6 1 25 9 44 23 57 29
115 15 165 -12 45 -78 172 -89 172 -3 0 -16 -20 -29 -45 -14 -26 -28 -42 -35
-38 -6 3 -8 3 -4 -2 4 -4 1 -22 -6 -40 -41 -98 -48 -235 -17 -334 9 -30 8 -36
-11 -52 -11 -10 -26 -16 -32 -12 -6 3 -8 2 -3 -2 8 -9 -72 -62 -181 -121 -90
-49 -95 -53 -77 -70 20 -20 38 -18 92 12 26 14 77 42 113 62 36 19 79 46 95
58 48 36 112 46 180 29 53 -14 73 -14 186 0 32 3 143 58 186 91 17 13 34 24
38 24 3 0 17 12 30 26 13 14 28 23 33 20 5 -3 9 1 9 9 0 8 -3 15 -6 16 -33 4
-62 10 -113 24 -5 2 -23 3 -40 4 -25 1 -29 4 -18 11 11 7 4 9 -25 8 -30 0 -34
-2 -15 -6 18 -4 4 -9 -45 -16 -47 -8 -72 -8 -77 -1 -5 6 -8 2 -8 -8 0 -10 -12
-22 -27 -28 -16 -6 -35 -16 -44 -22 -8 -7 -2 0 13 16 16 15 25 27 22 27 -3 0
4 9 17 19 16 13 28 16 36 10 8 -8 10 -4 6 13 -4 18 -3 20 6 8 9 -13 11 -12 11
3 0 10 4 16 9 13 5 -3 11 0 14 8 6 16 78 34 162 41 33 2 80 10 105 17 69 20
172 83 221 135 39 43 79 96 79 106 0 5 -186 0 -215 -5 -11 -2 -26 -7 -33 -12
-6 -4 -12 -4 -12 0 0 3 -11 -1 -24 -9 -18 -12 -26 -13 -36 -4 -7 7 -10 7 -7 1
3 -6 -12 -21 -33 -33 -22 -12 -46 -32 -55 -44 -8 -12 -15 -17 -15 -12 0 6 17
29 38 52 20 23 48 56 61 73 25 32 67 58 104 66 114 21 210 76 288 163 54 60
135 189 125 199 -12 11 -130 -19 -196 -50 -36 -17 -80 -44 -99 -59 -19 -15
-39 -25 -44 -22 -6 3 -7 1 -3 -5 3 -6 -5 -22 -19 -36 -32 -32 -31 -28 5 45 20
39 35 57 43 53 7 -4 9 -4 5 1 -4 4 -3 15 2 24 10 20 117 96 147 105 32 10 148
137 175 191 14 28 34 77 44 110 10 33 21 62 24 65 3 3 6 15 7 28 3 25 3 25
-56 -15 -18 -12 -37 -20 -42 -17 -5 3 -9 1 -9 -5 0 -6 -13 -17 -30 -26 -16 -8
-38 -25 -49 -37 -17 -17 -23 -19 -36 -8 -9 7 -15 8 -15 2 0 -6 6 -12 13 -15 8
-3 2 -15 -18 -33 -16 -16 -43 -55 -60 -86 -16 -31 -30 -56 -32 -55 -6 7 15 72
23 70 6 -1 9 12 8 28 -1 19 3 32 13 36 11 4 11 8 3 13 -8 5 -5 14 12 30 12 13
17 19 9 15 -11 -6 -13 -3 -7 16 30 96 36 129 31 194 -4 65 -29 149 -57 195
-14 22 -18 23 -34 12z"/>
</g>
</svg>
